<?xml version="1.0" standalone="no"?>
<!DOCTYPE svg PUBLIC "-//W3C//DTD SVG 20010904//EN"
 "http://www.w3.org/TR/2001/REC-SVG-20010904/DTD/svg10.dtd">
<svg version="1.0" xmlns="http://www.w3.org/2000/svg"
 width="512.000000pt" height="512.000000pt" viewBox="0 0 512.000000 512.000000"
 preserveAspectRatio="xMidYMid meet">
<metadata>
Created by potrace 1.14, written by Peter Selinger 2001-2017
</metadata>
<g transform="translate(0.000000,512.000000) scale(0.100000,-0.100000)"
fill="#000000" stroke="none">
<path d="M4139 4145 c-125 -32 -165 -72 -264 -260 -32 -60 -79 -150 -105 -200
-26 -49 -73 -139 -105 -200 -74 -141 -140 -267 -255 -485 -51 -96 -117 -222
-147 -280 -118 -223 -167 -317 -193 -365 -15 -27 -62 -117 -105 -200 -43 -82
-89 -169 -102 -193 -21 -40 -31 -85 -48 -237 -3 -27 -8 -66 -10 -85 -3 -19 -7
-55 -10 -80 -2 -25 -8 -70 -11 -100 -4 -30 -8 -64 -10 -75 -1 -11 -3 -30 -3
-42 l-1 -23 -962 0 c-530 0 -988 0 -1018 0 l-55 0 0 -75 c0 -68 2 -75 20 -76
11 0 485 -1 1053 -1 l1032 0 58 48 c81 69 443 385 468 409 12 11 48 72 81 135
123 235 176 336 198 375 12 22 48 90 80 150 32 61 72 137 90 170 18 33 63 119
100 190 38 72 102 193 143 270 79 148 129 244 220 415 30 58 74 141 97 185
124 233 129 246 131 320 3 87 -21 155 -76 217 -68 78 -194 118 -291 93z m136
-134 c51 -23 81 -56 98 -106 26 -74 22 -85 -110 -332 -30 -57 -57 -103 -60
-103 -3 0 -24 17 -48 38 -51 45 -150 94 -222 111 l-52 13 34 61 c19 34 56 104
82 154 26 51 56 103 67 116 59 65 136 83 211 48z m-322 -452 c116 -38 230
-121 220 -159 -3 -11 -7 -20 -10 -20 -3 0 -24 16 -46 36 -42 35 -164 101 -202
108 -36 7 -75 18 -75 21 0 2 3 10 6 19 8 21 32 20 107 -5z m-58 -84 c51 -11
148 -63 195 -103 l45 -40 -22 -43 c-12 -24 -48 -93 -81 -154 -32 -60 -83 -157
-114 -215 -30 -58 -73 -139 -95 -180 -22 -41 -66 -124 -98 -185 -136 -259
-160 -304 -195 -370 -78 -145 -134 -251 -153 -290 -10 -22 -28 -55 -39 -73
l-20 -32 -40 34 c-48 41 -153 98 -225 121 -43 14 -51 20 -44 34 5 9 68 129
141 266 73 138 155 293 182 345 28 52 67 127 88 165 40 74 94 177 180 340 118
224 154 293 183 343 32 58 26 56 112 37z m-800 -1686 c44 -21 96 -52 115 -69
l35 -30 -55 -51 c-30 -28 -75 -67 -98 -87 l-44 -36 -62 34 -62 33 7 56 c5 31
11 85 15 121 3 36 8 68 11 73 7 12 54 -2 138 -44z"/>
</g>
</svg>
