<?xml version="1.0" standalone="no"?>
<!DOCTYPE svg PUBLIC "-//W3C//DTD SVG 20010904//EN"
 "http://www.w3.org/TR/2001/REC-SVG-20010904/DTD/svg10.dtd">
<svg version="1.0" xmlns="http://www.w3.org/2000/svg"
 width="512.000000pt" height="512.000000pt" viewBox="0 0 512.000000 512.000000"
 preserveAspectRatio="xMidYMid meet">
<metadata>
Created by potrace 1.14, written by Peter Selinger 2001-2017
</metadata>
<g transform="translate(0.000000,512.000000) scale(0.100000,-0.100000)"
fill="#000000" stroke="none">
<path d="M2350 4739 c-175 -17 -312 -40 -460 -81 -745 -201 -1362 -732 -1673
-1438 -89 -202 -170 -481 -193 -660 -3 -30 -9 -68 -11 -85 -3 -16 -6 -136 -8
-265 -3 -229 8 -360 43 -527 5 -24 8 -43 5 -43 -2 0 1 -8 6 -18 5 -9 11 -30
14 -47 10 -57 59 -211 103 -323 112 -287 299 -586 497 -797 l75 -80 140 139
140 138 -53 57 c-138 146 -264 331 -359 524 -54 110 -116 264 -131 327 -2 8
-11 40 -20 70 -22 82 -53 254 -62 345 -13 142 -6 464 11 516 3 8 7 32 10 54
16 121 58 274 117 425 32 85 128 283 159 330 42 65 126 187 136 200 105 132
202 233 304 320 35 30 71 61 78 68 32 29 204 144 287 190 194 109 479 212 655
237 24 4 47 8 50 10 3 1 37 6 75 10 39 4 84 9 100 11 43 4 324 4 360 -1 17 -2
57 -6 89 -10 33 -3 103 -15 155 -26 520 -111 960 -383 1278 -789 159 -204 302
-480 368 -710 14 -48 46 -180 51 -209 3 -18 7 -43 10 -55 33 -171 38 -523 9
-666 -3 -14 -8 -45 -11 -70 -9 -66 -58 -252 -94 -355 -90 -256 -272 -554 -455
-746 l-54 -56 140 -139 140 -139 53 55 c83 87 189 221 270 343 69 104 198 342
224 412 6 17 27 73 46 125 35 91 83 254 92 309 3 14 7 32 9 39 7 19 35 199 43
272 10 89 9 429 -1 515 -14 123 -17 139 -33 220 -79 400 -227 734 -470 1060
-80 108 -94 124 -200 235 -341 358 -809 622 -1289 726 -99 22 -100 22 -225 40
-113 17 -422 24 -540 13z"/>
<path d="M3580 2903 c-13 -16 -39 -46 -59 -68 -20 -23 -65 -74 -101 -115 -36
-40 -72 -81 -80 -90 -8 -8 -40 -45 -70 -80 -30 -36 -71 -83 -91 -105 -30 -33
-200 -226 -308 -350 -14 -16 -46 -52 -70 -80 -390 -443 -563 -642 -588 -678
-63 -90 -81 -247 -42 -353 83 -224 311 -333 533 -255 91 32 180 108 223 193
13 24 105 291 207 593 101 303 249 745 329 983 80 237 144 432 143 432 -1 0
-13 -12 -26 -27z m-925 -1597 c21 -11 52 -40 68 -63 55 -77 34 -204 -42 -261
-95 -70 -229 -45 -286 53 -50 84 -38 172 31 242 65 64 144 75 229 29z"/>
</g>
</svg>
